<mxfile host="app.diagrams.net" agent="Mozilla/5.0 (Windows NT 10.0; Win64; x64) AppleWebKit/537.36 (KHTML, like Gecko) Chrome/131.0.0.0 Safari/537.36" version="25.0.3" pages="2">
  <diagram name="Page-1" id="LRry-8tiaS6HzqBhcMT4">
    <mxGraphModel dx="1290" dy="557" grid="1" gridSize="10" guides="1" tooltips="1" connect="1" arrows="1" fold="1" page="1" pageScale="1" pageWidth="827" pageHeight="1169" background="none" math="0" shadow="0">
      <root>
        <mxCell id="0" />
        <mxCell id="1" parent="0" />
        <mxCell id="E5JG0-WKW0irPrQr0zAJ-1" value="User" style="shape=umlLifeline;perimeter=lifelinePerimeter;whiteSpace=wrap;container=1;dropTarget=0;collapsible=0;recursiveResize=0;outlineConnect=0;portConstraint=eastwest;newEdgeStyle={&quot;edgeStyle&quot;:&quot;elbowEdgeStyle&quot;,&quot;elbow&quot;:&quot;vertical&quot;,&quot;curved&quot;:0,&quot;rounded&quot;:0};size=65;labelBackgroundColor=none;fillColor=#09555B;strokeColor=#BAC8D3;fontColor=#EEEEEE;" vertex="1" parent="1">
          <mxGeometry x="20" y="20" width="150" height="1468" as="geometry" />
        </mxCell>
        <mxCell id="E5JG0-WKW0irPrQr0zAJ-2" value="ChatGPT" style="shape=umlLifeline;perimeter=lifelinePerimeter;whiteSpace=wrap;container=1;dropTarget=0;collapsible=0;recursiveResize=0;outlineConnect=0;portConstraint=eastwest;newEdgeStyle={&quot;edgeStyle&quot;:&quot;elbowEdgeStyle&quot;,&quot;elbow&quot;:&quot;vertical&quot;,&quot;curved&quot;:0,&quot;rounded&quot;:0};size=65;labelBackgroundColor=none;fillColor=#09555B;strokeColor=#BAC8D3;fontColor=#EEEEEE;" vertex="1" parent="1">
          <mxGeometry x="398" y="20" width="150" height="1468" as="geometry" />
        </mxCell>
        <mxCell id="E5JG0-WKW0irPrQr0zAJ-3" value="Provide Text Prompt" style="verticalAlign=bottom;edgeStyle=elbowEdgeStyle;elbow=vertical;curved=0;rounded=0;endArrow=block;labelBackgroundColor=none;strokeColor=#0B4D6A;fontColor=default;" edge="1" parent="1" source="E5JG0-WKW0irPrQr0zAJ-1" target="E5JG0-WKW0irPrQr0zAJ-2">
          <mxGeometry relative="1" as="geometry">
            <Array as="points">
              <mxPoint x="293" y="129" />
            </Array>
          </mxGeometry>
        </mxCell>
        <mxCell id="E5JG0-WKW0irPrQr0zAJ-4" value="Tokenization (Text -&gt; Tokens)" style="curved=1;endArrow=block;rounded=0;labelBackgroundColor=none;strokeColor=#0B4D6A;fontColor=default;" edge="1" parent="1" source="E5JG0-WKW0irPrQr0zAJ-2" target="E5JG0-WKW0irPrQr0zAJ-2">
          <mxGeometry relative="1" as="geometry">
            <Array as="points">
              <mxPoint x="524" y="183" />
              <mxPoint x="524" y="213" />
            </Array>
          </mxGeometry>
        </mxCell>
        <mxCell id="E5JG0-WKW0irPrQr0zAJ-5" value="Apply Positional Encoding (Embed Positions of Tokens)" style="curved=1;endArrow=block;rounded=0;labelBackgroundColor=none;strokeColor=#0B4D6A;fontColor=default;" edge="1" parent="1" source="E5JG0-WKW0irPrQr0zAJ-2" target="E5JG0-WKW0irPrQr0zAJ-2">
          <mxGeometry relative="1" as="geometry">
            <Array as="points">
              <mxPoint x="524" y="267" />
              <mxPoint x="524" y="297" />
            </Array>
          </mxGeometry>
        </mxCell>
        <mxCell id="E5JG0-WKW0irPrQr0zAJ-6" value="Embedding Layer (Convert Tokens to Dense Embeddings)" style="curved=1;endArrow=block;rounded=0;labelBackgroundColor=none;strokeColor=#0B4D6A;fontColor=default;" edge="1" parent="1" source="E5JG0-WKW0irPrQr0zAJ-2" target="E5JG0-WKW0irPrQr0zAJ-2">
          <mxGeometry relative="1" as="geometry">
            <Array as="points">
              <mxPoint x="524" y="351" />
              <mxPoint x="524" y="381" />
            </Array>
          </mxGeometry>
        </mxCell>
        <mxCell id="E5JG0-WKW0irPrQr0zAJ-7" value="Transformer Block 1" style="curved=1;endArrow=block;rounded=0;labelBackgroundColor=none;strokeColor=#0B4D6A;fontColor=default;" edge="1" parent="1" source="E5JG0-WKW0irPrQr0zAJ-2" target="E5JG0-WKW0irPrQr0zAJ-2">
          <mxGeometry relative="1" as="geometry">
            <Array as="points">
              <mxPoint x="524" y="435" />
              <mxPoint x="524" y="465" />
            </Array>
          </mxGeometry>
        </mxCell>
        <mxCell id="E5JG0-WKW0irPrQr0zAJ-8" value="Multi-Head Self-Attention (Compute Token Relationships)" style="curved=1;endArrow=block;rounded=0;labelBackgroundColor=none;strokeColor=#0B4D6A;fontColor=default;" edge="1" parent="1" source="E5JG0-WKW0irPrQr0zAJ-2" target="E5JG0-WKW0irPrQr0zAJ-2">
          <mxGeometry relative="1" as="geometry">
            <Array as="points">
              <mxPoint x="524" y="519" />
              <mxPoint x="524" y="549" />
            </Array>
          </mxGeometry>
        </mxCell>
        <mxCell id="E5JG0-WKW0irPrQr0zAJ-9" value="Feed-Forward Neural Networks (Process Relationships)" style="curved=1;endArrow=block;rounded=0;labelBackgroundColor=none;strokeColor=#0B4D6A;fontColor=default;" edge="1" parent="1" source="E5JG0-WKW0irPrQr0zAJ-2" target="E5JG0-WKW0irPrQr0zAJ-2">
          <mxGeometry relative="1" as="geometry">
            <Array as="points">
              <mxPoint x="524" y="603" />
              <mxPoint x="524" y="633" />
            </Array>
          </mxGeometry>
        </mxCell>
        <mxCell id="E5JG0-WKW0irPrQr0zAJ-10" value="Apply Layer Normalization (Stabilize Output)" style="curved=1;endArrow=block;rounded=0;labelBackgroundColor=none;strokeColor=#0B4D6A;fontColor=default;" edge="1" parent="1" source="E5JG0-WKW0irPrQr0zAJ-2" target="E5JG0-WKW0irPrQr0zAJ-2">
          <mxGeometry relative="1" as="geometry">
            <Array as="points">
              <mxPoint x="524" y="687" />
              <mxPoint x="524" y="717" />
            </Array>
          </mxGeometry>
        </mxCell>
        <mxCell id="E5JG0-WKW0irPrQr0zAJ-11" value="Residual Connections (Prevent Vanishing Gradients)" style="curved=1;endArrow=block;rounded=0;labelBackgroundColor=none;strokeColor=#0B4D6A;fontColor=default;" edge="1" parent="1" source="E5JG0-WKW0irPrQr0zAJ-2" target="E5JG0-WKW0irPrQr0zAJ-2">
          <mxGeometry relative="1" as="geometry">
            <Array as="points">
              <mxPoint x="524" y="771" />
              <mxPoint x="524" y="801" />
            </Array>
          </mxGeometry>
        </mxCell>
        <mxCell id="E5JG0-WKW0irPrQr0zAJ-12" value="Transformer Block 2 (Repeat for Multiple Blocks)" style="curved=1;endArrow=block;rounded=0;labelBackgroundColor=none;strokeColor=#0B4D6A;fontColor=default;" edge="1" parent="1" source="E5JG0-WKW0irPrQr0zAJ-2" target="E5JG0-WKW0irPrQr0zAJ-2">
          <mxGeometry relative="1" as="geometry">
            <Array as="points">
              <mxPoint x="524" y="855" />
              <mxPoint x="524" y="885" />
            </Array>
          </mxGeometry>
        </mxCell>
        <mxCell id="E5JG0-WKW0irPrQr0zAJ-13" value="Generate Token-by-Token Output (Decoder)" style="curved=1;endArrow=block;rounded=0;labelBackgroundColor=none;strokeColor=#0B4D6A;fontColor=default;" edge="1" parent="1" source="E5JG0-WKW0irPrQr0zAJ-2" target="E5JG0-WKW0irPrQr0zAJ-2">
          <mxGeometry relative="1" as="geometry">
            <Array as="points">
              <mxPoint x="524" y="939" />
              <mxPoint x="524" y="969" />
            </Array>
          </mxGeometry>
        </mxCell>
        <mxCell id="E5JG0-WKW0irPrQr0zAJ-14" value="Use Previous Tokens and Context for Prediction" style="curved=1;endArrow=block;rounded=0;labelBackgroundColor=none;strokeColor=#0B4D6A;fontColor=default;" edge="1" parent="1" source="E5JG0-WKW0irPrQr0zAJ-2" target="E5JG0-WKW0irPrQr0zAJ-2">
          <mxGeometry relative="1" as="geometry">
            <Array as="points">
              <mxPoint x="524" y="1023" />
              <mxPoint x="524" y="1053" />
            </Array>
          </mxGeometry>
        </mxCell>
        <mxCell id="E5JG0-WKW0irPrQr0zAJ-15" value="Output Token Converted to Text (Detokenizer)" style="curved=1;endArrow=block;rounded=0;labelBackgroundColor=none;strokeColor=#0B4D6A;fontColor=default;" edge="1" parent="1" source="E5JG0-WKW0irPrQr0zAJ-2" target="E5JG0-WKW0irPrQr0zAJ-2">
          <mxGeometry relative="1" as="geometry">
            <Array as="points">
              <mxPoint x="524" y="1107" />
              <mxPoint x="524" y="1137" />
            </Array>
          </mxGeometry>
        </mxCell>
        <mxCell id="E5JG0-WKW0irPrQr0zAJ-16" value="Output Response (Text)" style="verticalAlign=bottom;edgeStyle=elbowEdgeStyle;elbow=vertical;curved=0;rounded=0;endArrow=block;labelBackgroundColor=none;strokeColor=#0B4D6A;fontColor=default;" edge="1" parent="1" source="E5JG0-WKW0irPrQr0zAJ-2" target="E5JG0-WKW0irPrQr0zAJ-1">
          <mxGeometry relative="1" as="geometry">
            <Array as="points">
              <mxPoint x="296" y="1191" />
            </Array>
          </mxGeometry>
        </mxCell>
        <mxCell id="E5JG0-WKW0irPrQr0zAJ-17" value="ChatGPT uses a stack of Transformer Blocks" style="fillColor=#09555B;strokeColor=#BAC8D3;labelBackgroundColor=none;fontColor=#EEEEEE;" vertex="1" parent="1">
          <mxGeometry x="311" y="1211" width="325" height="48" as="geometry" />
        </mxCell>
        <mxCell id="E5JG0-WKW0irPrQr0zAJ-18" value="Self-attention mechanism captures relationships between all tokens in the input sequence." style="fillColor=#09555B;strokeColor=#BAC8D3;labelBackgroundColor=none;fontColor=#EEEEEE;" vertex="1" parent="1">
          <mxGeometry x="145" y="1259" width="656" height="48" as="geometry" />
        </mxCell>
        <mxCell id="E5JG0-WKW0irPrQr0zAJ-19" value="Token generation is autoregressive (previous tokens influence the next)." style="fillColor=#09555B;strokeColor=#BAC8D3;labelBackgroundColor=none;fontColor=#EEEEEE;" vertex="1" parent="1">
          <mxGeometry x="211" y="1307" width="524" height="48" as="geometry" />
        </mxCell>
        <mxCell id="E5JG0-WKW0irPrQr0zAJ-20" value="Fine-tuning is used to improve response quality in real-world use cases." style="fillColor=#09555B;strokeColor=#BAC8D3;labelBackgroundColor=none;fontColor=#EEEEEE;" vertex="1" parent="1">
          <mxGeometry x="211" y="1355" width="524" height="48" as="geometry" />
        </mxCell>
      </root>
    </mxGraphModel>
  </diagram>
  <diagram id="c8O-Mq2Mxg0Lu-aosB6h" name="Page-2">
    <mxGraphModel dx="1400" dy="743" grid="1" gridSize="10" guides="1" tooltips="1" connect="1" arrows="1" fold="1" page="1" pageScale="1" pageWidth="827" pageHeight="1169" math="0" shadow="0">
      <root>
        <mxCell id="0" />
        <mxCell id="1" parent="0" />
        <mxCell id="RNov_lnGcjUpvxPdAMLR-1" value="User" style="shape=umlLifeline;perimeter=lifelinePerimeter;whiteSpace=wrap;container=1;dropTarget=0;collapsible=0;recursiveResize=0;outlineConnect=0;portConstraint=eastwest;newEdgeStyle={&quot;edgeStyle&quot;:&quot;elbowEdgeStyle&quot;,&quot;elbow&quot;:&quot;vertical&quot;,&quot;curved&quot;:0,&quot;rounded&quot;:0};size=65;sketch=1;hachureGap=4;jiggle=2;curveFitting=1;fontFamily=Architects Daughter;fontSource=https%3A%2F%2Ffonts.googleapis.com%2Fcss%3Ffamily%3DArchitects%2BDaughter;fillColor=#FAE5C7;strokeColor=#0F8B8D;labelBackgroundColor=none;fontColor=#143642;rounded=1;" vertex="1" parent="1">
          <mxGeometry x="20" y="20" width="150" height="1636" as="geometry" />
        </mxCell>
        <mxCell id="RNov_lnGcjUpvxPdAMLR-2" value="DALL_E" style="shape=umlLifeline;perimeter=lifelinePerimeter;whiteSpace=wrap;container=1;dropTarget=0;collapsible=0;recursiveResize=0;outlineConnect=0;portConstraint=eastwest;newEdgeStyle={&quot;edgeStyle&quot;:&quot;elbowEdgeStyle&quot;,&quot;elbow&quot;:&quot;vertical&quot;,&quot;curved&quot;:0,&quot;rounded&quot;:0};size=65;sketch=1;hachureGap=4;jiggle=2;curveFitting=1;fontFamily=Architects Daughter;fontSource=https%3A%2F%2Ffonts.googleapis.com%2Fcss%3Ffamily%3DArchitects%2BDaughter;fillColor=#FAE5C7;strokeColor=#0F8B8D;labelBackgroundColor=none;fontColor=#143642;rounded=1;" vertex="1" parent="1">
          <mxGeometry x="414" y="20" width="150" height="1636" as="geometry" />
        </mxCell>
        <mxCell id="RNov_lnGcjUpvxPdAMLR-3" value="Provide Text Prompt" style="verticalAlign=bottom;edgeStyle=elbowEdgeStyle;elbow=vertical;curved=0;rounded=1;endArrow=block;sketch=1;hachureGap=4;jiggle=2;curveFitting=1;fontFamily=Architects Daughter;fontSource=https%3A%2F%2Ffonts.googleapis.com%2Fcss%3Ffamily%3DArchitects%2BDaughter;strokeColor=#A8201A;labelBackgroundColor=none;fontColor=default;" edge="1" parent="1" source="RNov_lnGcjUpvxPdAMLR-1" target="RNov_lnGcjUpvxPdAMLR-2">
          <mxGeometry relative="1" as="geometry">
            <Array as="points">
              <mxPoint x="300" y="129" />
            </Array>
          </mxGeometry>
        </mxCell>
        <mxCell id="RNov_lnGcjUpvxPdAMLR-4" value="Tokenization (Text -&gt; Tokens)" style="curved=1;endArrow=block;rounded=1;sketch=1;hachureGap=4;jiggle=2;curveFitting=1;fontFamily=Architects Daughter;fontSource=https%3A%2F%2Ffonts.googleapis.com%2Fcss%3Ffamily%3DArchitects%2BDaughter;strokeColor=#A8201A;labelBackgroundColor=none;fontColor=default;" edge="1" parent="1" source="RNov_lnGcjUpvxPdAMLR-2" target="RNov_lnGcjUpvxPdAMLR-2">
          <mxGeometry relative="1" as="geometry">
            <Array as="points">
              <mxPoint x="540" y="183" />
              <mxPoint x="540" y="213" />
            </Array>
          </mxGeometry>
        </mxCell>
        <mxCell id="RNov_lnGcjUpvxPdAMLR-5" value="Apply Positional Encoding (Embed Positions of Tokens)" style="curved=1;endArrow=block;rounded=1;sketch=1;hachureGap=4;jiggle=2;curveFitting=1;fontFamily=Architects Daughter;fontSource=https%3A%2F%2Ffonts.googleapis.com%2Fcss%3Ffamily%3DArchitects%2BDaughter;strokeColor=#A8201A;labelBackgroundColor=none;fontColor=default;" edge="1" parent="1" source="RNov_lnGcjUpvxPdAMLR-2" target="RNov_lnGcjUpvxPdAMLR-2">
          <mxGeometry relative="1" as="geometry">
            <Array as="points">
              <mxPoint x="540" y="267" />
              <mxPoint x="540" y="297" />
            </Array>
          </mxGeometry>
        </mxCell>
        <mxCell id="RNov_lnGcjUpvxPdAMLR-6" value="Embedding Layer (Convert Tokens to Dense Embeddings)" style="curved=1;endArrow=block;rounded=1;sketch=1;hachureGap=4;jiggle=2;curveFitting=1;fontFamily=Architects Daughter;fontSource=https%3A%2F%2Ffonts.googleapis.com%2Fcss%3Ffamily%3DArchitects%2BDaughter;strokeColor=#A8201A;labelBackgroundColor=none;fontColor=default;" edge="1" parent="1" source="RNov_lnGcjUpvxPdAMLR-2" target="RNov_lnGcjUpvxPdAMLR-2">
          <mxGeometry relative="1" as="geometry">
            <Array as="points">
              <mxPoint x="540" y="351" />
              <mxPoint x="540" y="381" />
            </Array>
          </mxGeometry>
        </mxCell>
        <mxCell id="RNov_lnGcjUpvxPdAMLR-7" value="Transformer Block 1 (Textual and Visual Feature Integration)" style="curved=1;endArrow=block;rounded=1;sketch=1;hachureGap=4;jiggle=2;curveFitting=1;fontFamily=Architects Daughter;fontSource=https%3A%2F%2Ffonts.googleapis.com%2Fcss%3Ffamily%3DArchitects%2BDaughter;strokeColor=#A8201A;labelBackgroundColor=none;fontColor=default;" edge="1" parent="1" source="RNov_lnGcjUpvxPdAMLR-2" target="RNov_lnGcjUpvxPdAMLR-2">
          <mxGeometry relative="1" as="geometry">
            <Array as="points">
              <mxPoint x="540" y="435" />
              <mxPoint x="540" y="465" />
            </Array>
          </mxGeometry>
        </mxCell>
        <mxCell id="RNov_lnGcjUpvxPdAMLR-8" value="Cross-Attention (Align Text and Visual Concepts)" style="curved=1;endArrow=block;rounded=1;sketch=1;hachureGap=4;jiggle=2;curveFitting=1;fontFamily=Architects Daughter;fontSource=https%3A%2F%2Ffonts.googleapis.com%2Fcss%3Ffamily%3DArchitects%2BDaughter;strokeColor=#A8201A;labelBackgroundColor=none;fontColor=default;" edge="1" parent="1" source="RNov_lnGcjUpvxPdAMLR-2" target="RNov_lnGcjUpvxPdAMLR-2">
          <mxGeometry relative="1" as="geometry">
            <Array as="points">
              <mxPoint x="540" y="519" />
              <mxPoint x="540" y="549" />
            </Array>
          </mxGeometry>
        </mxCell>
        <mxCell id="RNov_lnGcjUpvxPdAMLR-9" value="Multi-Head Attention (Capture Relationships between Image Features and Text)" style="curved=1;endArrow=block;rounded=1;sketch=1;hachureGap=4;jiggle=2;curveFitting=1;fontFamily=Architects Daughter;fontSource=https%3A%2F%2Ffonts.googleapis.com%2Fcss%3Ffamily%3DArchitects%2BDaughter;strokeColor=#A8201A;labelBackgroundColor=none;fontColor=default;" edge="1" parent="1" source="RNov_lnGcjUpvxPdAMLR-2" target="RNov_lnGcjUpvxPdAMLR-2">
          <mxGeometry relative="1" as="geometry">
            <Array as="points">
              <mxPoint x="540" y="603" />
              <mxPoint x="540" y="633" />
            </Array>
          </mxGeometry>
        </mxCell>
        <mxCell id="RNov_lnGcjUpvxPdAMLR-10" value="Feed-Forward Neural Networks (Refine Features)" style="curved=1;endArrow=block;rounded=1;sketch=1;hachureGap=4;jiggle=2;curveFitting=1;fontFamily=Architects Daughter;fontSource=https%3A%2F%2Ffonts.googleapis.com%2Fcss%3Ffamily%3DArchitects%2BDaughter;strokeColor=#A8201A;labelBackgroundColor=none;fontColor=default;" edge="1" parent="1" source="RNov_lnGcjUpvxPdAMLR-2" target="RNov_lnGcjUpvxPdAMLR-2">
          <mxGeometry relative="1" as="geometry">
            <Array as="points">
              <mxPoint x="540" y="687" />
              <mxPoint x="540" y="717" />
            </Array>
          </mxGeometry>
        </mxCell>
        <mxCell id="RNov_lnGcjUpvxPdAMLR-11" value="Apply Layer Normalization (Stabilize Output)" style="curved=1;endArrow=block;rounded=1;sketch=1;hachureGap=4;jiggle=2;curveFitting=1;fontFamily=Architects Daughter;fontSource=https%3A%2F%2Ffonts.googleapis.com%2Fcss%3Ffamily%3DArchitects%2BDaughter;strokeColor=#A8201A;labelBackgroundColor=none;fontColor=default;" edge="1" parent="1" source="RNov_lnGcjUpvxPdAMLR-2" target="RNov_lnGcjUpvxPdAMLR-2">
          <mxGeometry relative="1" as="geometry">
            <Array as="points">
              <mxPoint x="540" y="771" />
              <mxPoint x="540" y="801" />
            </Array>
          </mxGeometry>
        </mxCell>
        <mxCell id="RNov_lnGcjUpvxPdAMLR-12" value="Residual Connections (Prevent Information Loss)" style="curved=1;endArrow=block;rounded=1;sketch=1;hachureGap=4;jiggle=2;curveFitting=1;fontFamily=Architects Daughter;fontSource=https%3A%2F%2Ffonts.googleapis.com%2Fcss%3Ffamily%3DArchitects%2BDaughter;strokeColor=#A8201A;labelBackgroundColor=none;fontColor=default;" edge="1" parent="1" source="RNov_lnGcjUpvxPdAMLR-2" target="RNov_lnGcjUpvxPdAMLR-2">
          <mxGeometry relative="1" as="geometry">
            <Array as="points">
              <mxPoint x="540" y="855" />
              <mxPoint x="540" y="885" />
            </Array>
          </mxGeometry>
        </mxCell>
        <mxCell id="RNov_lnGcjUpvxPdAMLR-13" value="Transformer Block 2 (Repeat for Multiple Blocks)" style="curved=1;endArrow=block;rounded=1;sketch=1;hachureGap=4;jiggle=2;curveFitting=1;fontFamily=Architects Daughter;fontSource=https%3A%2F%2Ffonts.googleapis.com%2Fcss%3Ffamily%3DArchitects%2BDaughter;strokeColor=#A8201A;labelBackgroundColor=none;fontColor=default;" edge="1" parent="1" source="RNov_lnGcjUpvxPdAMLR-2" target="RNov_lnGcjUpvxPdAMLR-2">
          <mxGeometry relative="1" as="geometry">
            <Array as="points">
              <mxPoint x="540" y="939" />
              <mxPoint x="540" y="969" />
            </Array>
          </mxGeometry>
        </mxCell>
        <mxCell id="RNov_lnGcjUpvxPdAMLR-14" value="Latent Space Representation (Shared Embedding of Text and Image)" style="curved=1;endArrow=block;rounded=1;sketch=1;hachureGap=4;jiggle=2;curveFitting=1;fontFamily=Architects Daughter;fontSource=https%3A%2F%2Ffonts.googleapis.com%2Fcss%3Ffamily%3DArchitects%2BDaughter;strokeColor=#A8201A;labelBackgroundColor=none;fontColor=default;" edge="1" parent="1" source="RNov_lnGcjUpvxPdAMLR-2" target="RNov_lnGcjUpvxPdAMLR-2">
          <mxGeometry relative="1" as="geometry">
            <Array as="points">
              <mxPoint x="540" y="1023" />
              <mxPoint x="540" y="1053" />
            </Array>
          </mxGeometry>
        </mxCell>
        <mxCell id="RNov_lnGcjUpvxPdAMLR-15" value="Mapping Between Text Embeddings and Image Latents" style="curved=1;endArrow=block;rounded=1;sketch=1;hachureGap=4;jiggle=2;curveFitting=1;fontFamily=Architects Daughter;fontSource=https%3A%2F%2Ffonts.googleapis.com%2Fcss%3Ffamily%3DArchitects%2BDaughter;strokeColor=#A8201A;labelBackgroundColor=none;fontColor=default;" edge="1" parent="1" source="RNov_lnGcjUpvxPdAMLR-2" target="RNov_lnGcjUpvxPdAMLR-2">
          <mxGeometry relative="1" as="geometry">
            <Array as="points">
              <mxPoint x="540" y="1107" />
              <mxPoint x="540" y="1137" />
            </Array>
          </mxGeometry>
        </mxCell>
        <mxCell id="RNov_lnGcjUpvxPdAMLR-16" value="Image Decoder (Convert Latent Representation to Image)" style="curved=1;endArrow=block;rounded=1;sketch=1;hachureGap=4;jiggle=2;curveFitting=1;fontFamily=Architects Daughter;fontSource=https%3A%2F%2Ffonts.googleapis.com%2Fcss%3Ffamily%3DArchitects%2BDaughter;strokeColor=#A8201A;labelBackgroundColor=none;fontColor=default;" edge="1" parent="1" source="RNov_lnGcjUpvxPdAMLR-2" target="RNov_lnGcjUpvxPdAMLR-2">
          <mxGeometry relative="1" as="geometry">
            <Array as="points">
              <mxPoint x="540" y="1191" />
              <mxPoint x="540" y="1221" />
            </Array>
          </mxGeometry>
        </mxCell>
        <mxCell id="RNov_lnGcjUpvxPdAMLR-17" value="VQ-VAE Decoder (Vector Quantized Variational Autoencoder)" style="curved=1;endArrow=block;rounded=1;sketch=1;hachureGap=4;jiggle=2;curveFitting=1;fontFamily=Architects Daughter;fontSource=https%3A%2F%2Ffonts.googleapis.com%2Fcss%3Ffamily%3DArchitects%2BDaughter;strokeColor=#A8201A;labelBackgroundColor=none;fontColor=default;" edge="1" parent="1" source="RNov_lnGcjUpvxPdAMLR-2" target="RNov_lnGcjUpvxPdAMLR-2">
          <mxGeometry relative="1" as="geometry">
            <Array as="points">
              <mxPoint x="540" y="1275" />
              <mxPoint x="540" y="1305" />
            </Array>
          </mxGeometry>
        </mxCell>
        <mxCell id="RNov_lnGcjUpvxPdAMLR-18" value="Output Image (Generated Image)" style="verticalAlign=bottom;edgeStyle=elbowEdgeStyle;elbow=vertical;curved=0;rounded=1;endArrow=block;sketch=1;hachureGap=4;jiggle=2;curveFitting=1;fontFamily=Architects Daughter;fontSource=https%3A%2F%2Ffonts.googleapis.com%2Fcss%3Ffamily%3DArchitects%2BDaughter;strokeColor=#A8201A;labelBackgroundColor=none;fontColor=default;" edge="1" parent="1" source="RNov_lnGcjUpvxPdAMLR-2" target="RNov_lnGcjUpvxPdAMLR-1">
          <mxGeometry relative="1" as="geometry">
            <Array as="points">
              <mxPoint x="303" y="1359" />
            </Array>
          </mxGeometry>
        </mxCell>
        <mxCell id="RNov_lnGcjUpvxPdAMLR-19" value="DALL·E bridges the gap between text and image by creating a shared latent space." style="fillColor=#FAE5C7;strokeColor=#0F8B8D;sketch=1;hachureGap=4;jiggle=2;curveFitting=1;fontFamily=Architects Daughter;fontSource=https%3A%2F%2Ffonts.googleapis.com%2Fcss%3Ffamily%3DArchitects%2BDaughter;labelBackgroundColor=none;fontColor=#143642;rounded=1;" vertex="1" parent="1">
          <mxGeometry x="190" y="1379" width="598" height="48" as="geometry" />
        </mxCell>
        <mxCell id="RNov_lnGcjUpvxPdAMLR-20" value="The cross-attention mechanism aligns textual prompts with image features." style="fillColor=#FAE5C7;strokeColor=#0F8B8D;sketch=1;hachureGap=4;jiggle=2;curveFitting=1;fontFamily=Architects Daughter;fontSource=https%3A%2F%2Ffonts.googleapis.com%2Fcss%3Ffamily%3DArchitects%2BDaughter;labelBackgroundColor=none;fontColor=#143642;rounded=1;" vertex="1" parent="1">
          <mxGeometry x="214" y="1427" width="550" height="48" as="geometry" />
        </mxCell>
        <mxCell id="RNov_lnGcjUpvxPdAMLR-21" value="VQ-VAE is used to ensure high-quality image generation by discretizing latent representations." style="fillColor=#FAE5C7;strokeColor=#0F8B8D;sketch=1;hachureGap=4;jiggle=2;curveFitting=1;fontFamily=Architects Daughter;fontSource=https%3A%2F%2Ffonts.googleapis.com%2Fcss%3Ffamily%3DArchitects%2BDaughter;labelBackgroundColor=none;fontColor=#143642;rounded=1;" vertex="1" parent="1">
          <mxGeometry x="145" y="1475" width="687" height="48" as="geometry" />
        </mxCell>
        <mxCell id="RNov_lnGcjUpvxPdAMLR-22" value="Fine-tuning can improve visual coherence between the generated image and the text prompt." style="fillColor=#FAE5C7;strokeColor=#0F8B8D;sketch=1;hachureGap=4;jiggle=2;curveFitting=1;fontFamily=Architects Daughter;fontSource=https%3A%2F%2Ffonts.googleapis.com%2Fcss%3Ffamily%3DArchitects%2BDaughter;labelBackgroundColor=none;fontColor=#143642;rounded=1;" vertex="1" parent="1">
          <mxGeometry x="149" y="1523" width="680" height="48" as="geometry" />
        </mxCell>
      </root>
    </mxGraphModel>
  </diagram>
</mxfile>
